<?xml version="1.0" encoding="UTF-8" standalone="no"?>
<!-- Generator: Adobe Illustrator 22.1.0, SVG Export Plug-In . SVG Version: 6.00 Build 0)  -->

<svg
   version="1.1"
   id="Layer_1"
   x="0px"
   y="0px"
   width="90px"
   height="90px"
   viewBox="0 0 90 90"
   xml:space="preserve"
   sodipodi:docname="call-incoming.svg"
   inkscape:version="1.2.2 (732a01da63, 2022-12-09)"
   xmlns:inkscape="http://www.inkscape.org/namespaces/inkscape"
   xmlns:sodipodi="http://sodipodi.sourceforge.net/DTD/sodipodi-0.dtd"
   xmlns="http://www.w3.org/2000/svg"
   xmlns:svg="http://www.w3.org/2000/svg"><defs
   id="defs21" /><sodipodi:namedview
   id="namedview19"
   pagecolor="#ffffff"
   bordercolor="#666666"
   borderopacity="1.0"
   inkscape:showpageshadow="2"
   inkscape:pageopacity="0.0"
   inkscape:pagecheckerboard="0"
   inkscape:deskcolor="#d1d1d1"
   showgrid="false"
   inkscape:zoom="9.0222222"
   inkscape:cx="41.342365"
   inkscape:cy="45"
   inkscape:window-width="1920"
   inkscape:window-height="1027"
   inkscape:window-x="1912"
   inkscape:window-y="-8"
   inkscape:window-maximized="1"
   inkscape:current-layer="Layer_1" />
<path
   id="path2"
   d="M 19.144531,4.6015625 C 15.114427,6.3876567 11.049772,8.0941046 6.9921875,9.8164062 3.5619317,13.622053 3.5864623,19.210975 4.6105119,23.944144 c 2.075615,9.020269 7.0133191,17.082033 12.4719501,24.43904 9.158417,12.100861 20.454546,22.680916 33.467511,30.534976 6.174111,3.561584 12.924663,6.686961 20.145764,7.069208 3.359065,0.07865 7.106582,-0.606441 9.529713,-3.100529 1.828522,-4.289377 3.662924,-8.593074 5.528456,-12.873167 -5.987917,-3.531281 -11.957039,-7.094321 -17.945312,-10.625 -4.55007,2.437579 -9.053275,4.986777 -13.684274,7.258752 -3.057726,1.072284 -6.481234,-0.351707 -8.396696,-2.840819 C 38.642774,56.683031 31.468683,49.643506 24.454906,42.45215 22.43858,39.913371 22.647777,36.134688 24.488283,33.560854 26.53224,29.75574 28.585827,25.955747 30.607422,22.138672 27.033754,16.196567 23.54759,10.202301 19.964844,4.265625 19.691406,4.3776042 19.417969,4.4895833 19.144531,4.6015625 Z" />
<path
   id="path4"
   d="M 63.03125,20.675781 53.037109,10.679688 46.876953,43.123047 79.322266,36.966797 69.326172,26.96875 85.839844,10.457031 79.544922,4.1621094 Z"
   sodipodi:nodetypes="cccccccc" />
<g
   id="g6">
</g>
<g
   id="g8">
</g>
<g
   id="g10">
</g>
<g
   id="g12">
</g>
<g
   id="g14">
</g>
<g
   id="g16">
</g>
</svg>
