<?xml version="1.0" encoding="UTF-8"?>
<svg version="1.1" viewBox="0 0 512 512" xmlns="http://www.w3.org/2000/svg">
  <path d="m257.7 1.482c-34.28 0-65.27 13.07-87.29 36.8-22.25 23.99-33.1 56.6-30.55 91.81 5.046 69.47 57.91 126 117.8 126 11.63 0 22.99-2.154 33.79-6.094-2.7e-4 -0.1204 2.7e-4 -0.2409 0-0.3613-0.7593-14.34 2.261-29.03 9.598-41.46 11.94-20.71 35.21-34.29 59.1-34.61 1.756-0.02221 3.506 0.1435 5.258 0.252 5.366-13.63 8.947-28.31 10.08-43.69 2.58-34.89-8.331-67.43-30.72-91.61-22.12-23.88-53.01-37.03-87.1-37.03zm0 291c-5.682 0-11.34 0.2052-16.98 0.5371 9.49-0.1756 18.98-0.26 28.47-0.2891-3.822-0.1521-7.65-0.248-11.49-0.248zm-23.88 1.027c-45.82 3.798-89.59 18.4-125.2 42.16-47.05 31.38-76.99 76.08-86.58 129.3-2.205 12.2 0.7727 24.25 8.16 33.08a35.23 35.23 0 0 0 27.5 12.65h241c-3.396-7.283-5.666-15.08-6.33-23.11-0.4104-18.31-0.3378-36.63-0.4102-54.94l-28.07 0.06445c-10.54-0.2055-21.15 0.7026-31.63-0.8144-21.31-3.079-40.69-16.84-50.88-35.77-10.81-19.55-11.18-44.37-1.236-64.34 9.995-20.7 30.99-35.39 53.75-38.28zm250.6 138.5c-17.5 0.342-35.01 0.3026-52.51 0.375 0.0229 9.436 0.04536 18.87 0.06836 28.31-0.2173 10.85 0.7805 21.79-0.9844 32.56-0.9912 6.069-2.93 11.93-5.52 17.49h32.29a35.23 35.23 0 0 0 27.5-12.66c7.388-8.831 10.37-20.89 8.16-33.09-2.057-11.41-5.105-22.4-9.002-32.99z"/>
  <path d="m361.4 213.5a30 30 0 0 0-29.93 30.07l0.2012 88.93-88.93 0.2012a30 30 0 0 0-29.93 30.07 30 30 0 0 0 30.07 29.93l88.93-0.2012 0.2012 88.93a30 30 0 0 0 30.07 29.93 30 30 0 0 0 29.93-30.07l-0.2012-88.93 88.93-0.2012a30 30 0 0 0 29.93-30.07 30 30 0 0 0-30.07-29.93l-88.93 0.2012-0.2012-88.93a30 30 0 0 0-30.07-29.93z"/>
</svg>
