<?xml version="1.0" encoding="UTF-8" standalone="no"?>
<svg
   width="1024"
   height="1024"
   viewBox="0 0 1024 1024"
   version="1.1"
>
  <rect
     style="font-variation-settings:normal;opacity:1;vector-effect:none;fill:#43a047;fill-opacity:1;stroke-width:0.999996;stroke-linecap:butt;stroke-linejoin:miter;stroke-miterlimit:4;stroke-dasharray:none;stroke-dashoffset:0;stroke-opacity:1;-inkscape-stroke:none;stop-color:#000000;stop-opacity:1"
     width="1024"
     height="1024"
     x="0"
     y="0" />
  <path
     fill="#ffffff"
     d="m 715.29166,662.82196 -87.3445,-9.9724 c -20.97642,-2.40713 -41.60898,4.81426 -56.39565,19.60093 l -63.27317,63.27317 C 410.96144,686.20552 331.18222,606.77018 281.66408,509.10941 l 63.61706,-63.61705 c 14.78666,-14.78667 22.00806,-35.41922 19.60092,-56.39566 l -9.9724,-86.65674 c -4.1265,-34.73147 -33.35597,-60.86604 -68.43131,-60.86604 h -59.49054 c -38.85798,0 -71.18233,32.32433 -68.77519,71.18232 18.22543,293.67007 253.0927,528.19346 546.41889,546.41889 38.85797,2.40712 71.18232,-29.91721 71.18232,-68.77519 V 730.9094 c 0.34387,-34.73148 -25.7907,-63.96093 -60.52217,-68.08744 z"
     style="stroke-width:1.5"
  />
  <path
     d="m 456.2597,248.81414 m -30.00001,0 a 29.999999,29.991911 0 1 0 59.99999,0 29.999999,29.991911 0 1 0 -59.99999,0 z"
     style="overflow:hidden;fill:#ffffff;stroke-width:1.99999"
  />
  <path
     d="m 549.25855,218.82217 h 293.78632 c 15.19027,0 26.7854,9.32892 26.7854,27.98676 v 3.57278 c 0,18.65783 -11.59513,27.98675 -26.7854,27.98675 H 549.25855 c -15.19026,0 -26.78539,-9.32892 -26.78539,-27.98675 v -3.57278 c 0,-18.65784 11.59513,-27.98676 26.78539,-27.98676 z"
     style="overflow:hidden;fill:#ffffff;stroke-width:1.99999"
  />
  <path
     d="m 456.2597,396.81414 m -30.00001,0 a 29.999999,29.991911 0 1 0 59.99999,0 29.999999,29.991911 0 1 0 -59.99999,0 z"
     style="overflow:hidden;fill:#ffffff;stroke-width:1.99999"
  />
  <path
     d="m 549.25855,366.82217 h 293.78632 c 15.19027,0 26.7854,9.32892 26.7854,27.98676 v 3.57278 c 0,18.65783 -11.59513,27.98675 -26.7854,27.98675 H 549.25855 c -15.19026,0 -26.78539,-9.32892 -26.78539,-27.98675 v -3.57278 c 0,-18.65784 11.59513,-27.98676 26.78539,-27.98676 z"
     style="overflow:hidden;fill:#ffffff;stroke-width:1.99999"
  />
  <path
     d="m 456.2597,544.81414 m -30.00001,0 a 29.999999,29.991911 0 1 0 59.99999,0 29.999999,29.991911 0 1 0 -59.99999,0 z"
     style="overflow:hidden;fill:#ffffff;stroke-width:1.99999"
  />
  <path
     d="m 549.25855,514.82217 h 293.78632 c 15.19027,0 26.7854,9.32892 26.7854,27.98676 v 3.57278 c 0,18.65783 -11.59513,27.98675 -26.7854,27.98675 H 549.25855 c -15.19026,0 -26.78539,-9.32892 -26.78539,-27.98675 v -3.57278 c 0,-18.65784 11.59513,-27.98676 26.78539,-27.98676 z"
     style="overflow:hidden;fill:#ffffff;stroke-width:1.99999"
  />
</svg>
