<?xml version="1.0" encoding="UTF-8"?>
<svg width="800px" height="800px" version="1.1" viewBox="0 0 24 24" xmlns="http://www.w3.org/2000/svg" xmlns:cc="http://creativecommons.org/ns#" xmlns:dc="http://purl.org/dc/elements/1.1/" xmlns:rdf="http://www.w3.org/1999/02/22-rdf-syntax-ns#">
  <path d="m8.651 15.24c0.3871 0.3317 0.4584 0.8951 0.1844 1.31l-0.0757 0.1003-3 3.501c-0.3167 0.3696-0.848 0.4536-1.259 0.2154l-0.1002-0.06628-2-1.501c-0.4417-0.3315-0.531-0.9584-0.1995-1.4 0.306-0.4077 0.8637-0.5152 1.295-0.2685l0.105 0.06907 1.25 0.9378 2.391-2.789c0.3594-0.4194 0.9906-0.4681 1.41-0.1087zm12.35 1.759c0.5523 0 1 0.4477 1 1 0 0.5128-0.386 0.9355-0.8834 0.9933l-0.1166 0.006728h-10c-0.5523 0-1-0.4477-1-1 0-0.5128 0.386-0.9355 0.8834-0.9933l0.1166-0.006728zm-0.01242-6c0.5523 0 1 0.4477 1 1 0 0.5128-0.386 0.9355-0.8834 0.9933l-0.1166 0.006728h-10c-0.5523 0-1-0.4477-1-1 0-0.5128 0.386-0.9355 0.8834-0.9933l0.1166-0.006728zm-12.34-7.759c0.3871 0.3317 0.4584 0.8951 0.1844 1.31l-0.0757 0.1003-3 3.501c-0.3167 0.3696-0.848 0.4536-1.259 0.2154l-0.1002-0.06628-2-1.501c-0.4417-0.3315-0.531-0.9584-0.1995-1.4 0.306-0.4077 0.8637-0.5152 1.295-0.2685l0.105 0.06907 1.25 0.9378 2.391-2.789c0.3594-0.4194 0.9906-0.4681 1.41-0.1087zm12.35 1.759c0.5523 0 1 0.4477 1 1 0 0.5128-0.386 0.9355-0.8834 0.9933l-0.1166 0.006728h-10c-0.5523 0-1-0.4477-1-1 0-0.5128 0.386-0.9355 0.8834-0.9933l0.1166-0.006728z" />
</svg>
